<svg width="17" height="16" viewBox="0 0 17 16" fill="none" xmlns="http://www.w3.org/2000/svg">
<path d="M11.8333 8.00016C11.8333 9.84111 10.341 11.3335 8.50001 11.3335C6.65906 11.3335 5.16668 9.84111 5.16668 8.00016C5.16668 6.15921 6.65906 4.66683 8.50001 4.66683C10.341 4.66683 11.8333 6.15921 11.8333 8.00016Z" fill="white" fill-opacity="0.25"/>
<path fill-rule="evenodd" clip-rule="evenodd" d="M8.50001 0.833496C8.77615 0.833496 9.00001 1.05735 9.00001 1.3335V2.66683C9.00001 2.94297 8.77615 3.16683 8.50001 3.16683C8.22387 3.16683 8.00001 2.94297 8.00001 2.66683V1.3335C8.00001 1.05735 8.22387 0.833496 8.50001 0.833496ZM2.94578 2.47755C3.13211 2.27375 3.44838 2.2596 3.65218 2.44593L5.13352 3.80032C5.33732 3.98665 5.35148 4.30292 5.16514 4.50672C4.97881 4.71052 4.66255 4.72468 4.45875 4.53834L2.9774 3.18395C2.7736 2.99762 2.75944 2.68135 2.94578 2.47755ZM14.0542 2.47755C14.2406 2.68135 14.2264 2.99762 14.0226 3.18395L12.5413 4.53834C12.3375 4.72468 12.0212 4.71052 11.8349 4.50672C11.6485 4.30292 11.6627 3.98665 11.8665 3.80032L13.3478 2.44593C13.5516 2.2596 13.8679 2.27375 14.0542 2.47755ZM1.33334 8.00016C1.33334 7.72402 1.5572 7.50016 1.83334 7.50016H3.16668C3.44282 7.50016 3.66668 7.72402 3.66668 8.00016C3.66668 8.27631 3.44282 8.50016 3.16668 8.50016H1.83334C1.5572 8.50016 1.33334 8.27631 1.33334 8.00016ZM13.3333 8.00016C13.3333 7.72402 13.5572 7.50016 13.8333 7.50016H15.1667C15.4428 7.50016 15.6667 7.72402 15.6667 8.00016C15.6667 8.27631 15.4428 8.50016 15.1667 8.50016H13.8333C13.5572 8.50016 13.3333 8.27631 13.3333 8.00016ZM11.8504 11.3503C12.0456 11.155 12.3622 11.1551 12.5575 11.3503L14.0388 12.8319C14.2341 13.0271 14.234 13.3437 14.0388 13.539C13.8435 13.7342 13.5269 13.7342 13.3317 13.5389L11.8503 12.0574C11.6551 11.8621 11.6551 11.5455 11.8504 11.3503ZM5.14979 11.3504C5.34505 11.5456 5.34505 11.8622 5.14979 12.0575L3.66831 13.539C3.47304 13.7342 3.15646 13.7342 2.9612 13.539C2.76594 13.3437 2.76594 13.0271 2.9612 12.8319L4.44268 11.3504C4.63794 11.1551 4.95453 11.1551 5.14979 11.3504ZM8.50001 12.8335C8.77615 12.8335 9.00001 13.0574 9.00001 13.3335V14.6668C9.00001 14.943 8.77615 15.1668 8.50001 15.1668C8.22387 15.1668 8.00001 14.943 8.00001 14.6668V13.3335C8.00001 13.0574 8.22387 12.8335 8.50001 12.8335Z" fill="white" fill-opacity="0.25"/>
</svg>
